<svg width="56" height="53" viewBox="0 0 56 53" fill="none" xmlns="http://www.w3.org/2000/svg">
<path d="M38.0402 0.130659C34.8041 -0.363697 31.3759 3.38759 30.3886 8.56379C29.4013 13.7109 31.184 18.3055 34.4201 18.829C37.6289 19.3524 41.0844 15.6011 42.0991 10.4249C43.1139 5.27778 41.2764 0.683175 38.0402 0.130659ZM18.4313 0.130659C15.1677 0.683175 13.3577 5.27778 14.3175 10.4249C15.3597 15.6011 18.7878 19.3524 22.024 18.829C25.2876 18.3055 27.0702 13.7109 26.0555 8.56379C25.0682 3.38759 21.64 -0.363697 18.4313 0.130659ZM52.7126 13.5074C49.5862 12.0824 45.3353 14.6705 43.1139 19.1779C41.0296 23.7725 41.7426 28.5998 44.8416 30.0247C47.9407 31.4496 52.1641 28.8906 54.3307 24.325C56.4973 19.7595 55.7294 14.9032 52.7126 13.5074ZM3.3475 13.5074C0.330746 14.9032 -0.43716 19.7595 1.72942 24.325C3.896 28.8906 8.11947 31.4496 11.2185 30.0247C14.3175 28.5998 15.0306 23.7725 12.9463 19.1779C10.7249 14.6705 6.47396 12.0824 3.3475 13.5074ZM7.92749 44.8553C7.81779 47.5888 9.7924 50.6131 12.151 51.7473C17.06 54.1318 22.8742 49.1882 28.3318 49.1882C33.7893 49.1882 39.6583 54.3354 44.4851 51.7473C47.2276 50.3223 49.12 46.542 48.7634 43.4014C48.2698 39.0685 43.3607 36.7421 40.4536 33.5724C36.5867 29.4721 33.8442 21.766 28.3318 21.766C22.8467 21.766 19.9397 29.3558 16.2373 33.5724C13.1931 37.1201 8.11947 40.1153 7.92749 44.8553Z" fill="#4EC690"/>
</svg>
