<svg width="31" height="30" viewBox="0 0 31 30" fill="none" xmlns="http://www.w3.org/2000/svg">
<path d="M21.1344 0.11113C19.3129 -0.162527 17.3833 1.91404 16.8276 4.77939C16.2718 7.62863 17.2752 10.172 19.0968 10.4618C20.9029 10.7515 22.8479 8.67497 23.4191 5.80962C23.9903 2.96038 22.956 0.416981 21.1344 0.11113ZM10.0971 0.11113C8.26013 0.416981 7.2413 2.96038 7.78159 5.80962C8.36819 8.67497 10.2978 10.7515 12.1193 10.4618C13.9563 10.172 14.9597 7.62863 14.3885 4.77939C13.8328 1.91404 11.9032 -0.162527 10.0971 0.11113ZM29.3931 7.51595C27.6333 6.72718 25.2406 8.15985 23.9903 10.655C22.8171 13.1983 23.2184 15.8705 24.9628 16.6593C26.7071 17.4481 29.0844 16.0315 30.3039 13.5042C31.5234 10.9769 31.0912 8.28863 29.3931 7.51595ZM1.60685 7.51595C-0.091198 8.28863 -0.52343 10.9769 0.696079 13.5042C1.91559 16.0315 4.29286 17.4481 6.03723 16.6593C7.78159 15.8705 8.18294 13.1983 7.00974 10.655C5.75936 8.15985 3.36665 6.72718 1.60685 7.51595ZM4.1848 24.869C4.12306 26.3821 5.23451 28.0563 6.56207 28.6841C9.32527 30.0041 12.5979 27.2675 15.6698 27.2675C18.7417 27.2675 22.0452 30.1168 24.7621 28.6841C26.3058 27.8953 27.3709 25.8026 27.1702 24.0641C26.8924 21.6656 24.1292 20.3778 22.4929 18.6232C20.3163 16.3534 18.7726 12.0876 15.6698 12.0876C12.5824 12.0876 10.9461 16.2891 8.86217 18.6232C7.14868 20.5871 4.29286 22.2451 4.1848 24.869Z" fill="white"/>
</svg>
